<svg width="228.50498046875px" height="122.021240234375px" xmlns="http://www.w3.org/2000/svg" viewBox="135.747509765625 13.9893798828125 228.50498046875 122.021240234375" style="background: rgba(0, 0, 0, 0);" preserveAspectRatio="xMidYMid"><defs><filter id="editing-hole" x="-100%" y="-100%" width="300%" height="300%"><feFlood flood-color="#000" result="black"></feFlood><feMorphology operator="dilate" radius="2" in="SourceGraphic" result="erode"></feMorphology><feGaussianBlur in="erode" stdDeviation="4" result="blur"></feGaussianBlur><feOffset in="blur" dx="2" dy="2" result="offset"></feOffset><feComposite operator="atop" in="offset" in2="black" result="merge"></feComposite><feComposite operator="in" in="merge" in2="SourceGraphic" result="inner-shadow"></feComposite></filter></defs><g filter="url(#editing-hole)"><g transform="translate(172.97999966144562, 98.7578125)"><path d="M48.83-10.69L48.83-10.69Q44.61-4.86 40.54-1.79L40.54-1.79L40.54-1.79Q36.48 1.28 32.29 1.28L32.29 1.28L32.29 1.28Q28.10 1.28 26.62 0.45L26.62 0.45L26.62-13.63L26.62-13.63Q22.98-3.90 16.45-0.13L16.45-0.13L16.45-0.13Q14.08 1.28 11.84 1.28L11.84 1.28L11.84 1.28Q7.55 1.28 5.70 0.45L5.70 0.45L5.70 0.45Q5.25-14.21 4.86-18.27L4.86-18.27L4.86-18.27Q4.48-22.34 4.16-24.83L4.16-24.83L4.16-24.83Q3.52-29.82 1.34-31.87L1.34-31.87L1.34-31.87Q4.10-33.92 7.94-33.92L7.94-33.92L7.94-33.92Q15.36-33.92 16.38-24.70L16.38-24.70L16.38-24.70Q16.64-22.53 16.64-20.22L16.64-20.22L16.64-20.22Q16.64-16.77 15.87-4.74L15.87-4.74L15.87-4.74Q17.41-5.44 19.04-7.97L19.04-7.97L19.04-7.97Q20.67-10.50 22.02-13.95L22.02-13.95L22.02-13.95Q25.02-21.95 25.02-28.86L25.02-28.86L25.02-28.86Q25.02-29.95 24.74-31.10L24.74-31.10L24.74-31.10Q24.45-32.26 24.13-32.58L24.13-32.58L24.13-32.58Q26.37-33.92 29.79-33.92L29.79-33.92L29.79-33.92Q33.22-33.92 34.85-31.58L34.85-31.58L34.85-31.58Q36.48-29.25 36.93-24.96L36.93-24.96L36.93-24.96Q37.44-19.52 37.44-16.26L37.44-16.26L37.44-16.26Q37.44-11.71 36.99-4.99L36.99-4.99L36.99-4.99Q40.19-7.30 42.82-14.85L42.82-14.85L42.82-14.85Q45.44-22.40 45.44-27.78L45.44-27.78L45.44-27.78Q45.44-30.14 45.06-31.55L45.06-31.55L45.06-31.55Q47.17-33.92 50.82-33.92L50.82-33.92L50.82-33.92Q53.06-33.92 54.69-32.70L54.69-32.70L54.69-32.70Q56.32-31.49 56.32-29.22L56.32-29.22L56.32-29.22Q56.32-26.94 55.65-24.51L55.65-24.51L55.65-24.51Q54.98-22.08 53.89-19.58L53.89-19.58L53.89-19.58Q51.78-14.59 48.83-10.69L48.83-10.69ZM73.41-3.52L73.41-3.52L73.41-3.52Q71.42 1.28 65.09 1.28L65.09 1.28L65.09 1.28Q61.82 1.28 59.78-0.96L59.78-0.96L59.78-0.96Q58.05-2.94 58.05-4.93L58.05-4.93L58.05-4.93Q58.05-10.11 60.42-20.22L60.42-20.22L62.78-32.64L75.78-33.92L71.87-13.70L71.87-13.70Q70.78-8.96 70.78-7.30L70.78-7.30L70.78-7.30Q70.78-3.65 73.41-3.52ZM63.94-41.54L63.94-41.54L63.94-41.54Q63.94-44.03 66.02-45.38L66.02-45.38L66.02-45.38Q68.10-46.72 71.10-46.72L71.10-46.72L71.10-46.72Q74.11-46.72 75.94-45.38L75.94-45.38L75.94-45.38Q77.76-44.03 77.76-41.54L77.76-41.54L77.76-41.54Q77.76-39.04 75.74-37.76L75.74-37.76L75.74-37.76Q73.73-36.48 70.72-36.48L70.72-36.48L70.72-36.48Q67.71-36.48 65.82-37.76L65.82-37.76L65.82-37.76Q63.94-39.04 63.94-41.54ZM105.92 1.28L105.92 1.28L105.92 1.28Q98.18 1.28 98.18-4.74L98.18-4.74L98.18-4.74Q98.24-6.40 98.75-9.22L98.75-9.22L99.90-15.10L99.90-15.10Q101.63-23.42 101.63-25.28L101.63-25.28L101.63-25.28Q101.63-28.99 99.46-28.99L99.46-28.99L99.46-28.99Q95.81-28.99 93.89-19.46L93.89-19.46L90.11 0L77.25 1.28L83.90-32.70L94.40-33.92L93.38-27.65L93.38-27.65Q96.38-33.92 105.60-33.92L105.60-33.92L105.60-33.92Q110.08-33.92 111.97-32.03L111.97-32.03L111.97-32.03Q113.86-30.14 113.86-25.92L113.86-25.92L113.86-25.92Q113.86-21.95 111.81-12.67L111.81-12.67L111.81-12.67Q110.85-8.51 110.85-6.94L110.85-6.94L110.85-6.94Q110.85-5.38 111.71-4.48L111.71-4.48L111.71-4.48Q112.58-3.58 113.86-3.46L113.86-3.46L113.86-3.46Q113.22-1.28 111.01 0L111.01 0L111.01 0Q108.80 1.28 105.92 1.28ZM127.49 0.19L127.49 0.19L127.49 0.19Q125.44 1.28 122.62 1.28L122.62 1.28L122.62 1.28Q119.81 1.28 118.27-0.16L118.27-0.16L118.27-0.16Q116.74-1.60 116.74-4.38L116.74-4.38L116.74-4.38Q116.74-7.17 118.69-9.89L118.69-9.89L118.69-9.89Q120.64-12.61 123.55-14.14L123.55-14.14L123.55-14.14Q126.46-15.68 128.51-16.58L128.51-16.58L124.48-25.86L124.48-25.86Q123.39-28.22 121.34-28.22L121.34-28.22L120.83-28.16L120.64-28.16L120.64-28.16Q121.02-30.40 123.65-32.13L123.65-32.13L123.65-32.13Q126.27-33.92 129.28-33.92L129.28-33.92L129.28-33.92Q134.14-33.92 136.38-29.06L136.38-29.06L136.90-28.03L139.65-21.25L139.65-21.25Q141.38-22.02 142.11-23.46L142.11-23.46L142.11-23.46Q142.85-24.90 142.85-27.74L142.85-27.74L142.85-27.74Q142.85-30.59 141.31-32.38L141.31-32.38L141.31-32.38Q143.74-33.92 146.94-33.92L146.94-33.92L146.94-33.92Q152.70-33.92 152.70-28.35L152.70-28.35L152.70-28.35Q152.70-22.27 145.09-18.75L145.09-18.75L141.25-16.96L144.70-8.06L144.70-8.06Q145.73-5.38 147.58-4.22L147.58-4.22L147.58-4.22Q148.35-3.71 149.25-3.65L149.25-3.65L149.25-3.65Q147.33-0.51 143.17 0.90L143.17 0.90L143.17 0.90Q141.89 1.28 140.16 1.28L140.16 1.28L140.16 1.28Q138.43 1.28 136.45 0.10L136.45 0.10L136.45 0.10Q134.46-1.09 133.76-2.94L133.76-2.94L130.24-12.10L130.24-12.10Q126.66-10.50 126.66-4.67L126.66-4.67L126.66-4.67Q126.66-1.98 127.49 0.19Z" fill="#ccc"></path></g></g><style>text {
  font-size: 64px;
  font-family: Arial Black;
  dominant-baseline: central;
  text-anchor: middle;
}</style></svg>